<svg width="72" height="72" viewBox="0 -3.5527137e-15 72 72" xmlns="http://www.w3.org/2000/svg">
  <path d="m 35.618095,17.419907 c 3.976446,0 7.464808,-1.552774 10.46501,-4.6584 C 49.083307,9.6558821 50.583484,6.0445895 50.583484,1.9276295 50.583484,1.4754695 50.547712,0.83292632 50.476318,0 49.952461,0.07139368 49.559568,0.13088842 49.29764,0.17848421 45.630718,0.70203789 42.404284,2.4987789 39.618339,5.5686316 36.832469,8.63856 35.439535,11.922669 35.439535,15.42096 c 0,0.404488 0.05949,1.070905 0.17856,1.998947 z M 49.869093,72 c 2.833541,0 5.964707,-1.939453 9.393574,-5.818509 3.428868,-3.879057 6.048,-8.436354 7.857701,-13.671815 -6.738593,-3.474493 -10.10789,-8.460076 -10.10789,-14.956901 0,-5.425844 2.726375,-10.066358 8.1792,-13.921617 -3.785987,-4.735781 -8.78635,-7.103672 -15.001086,-7.103672 -2.619285,0 -5.012261,0.392666 -7.179083,1.177996 l -1.357237,0.499756 -1.8216,0.713937 c -1.190577,0.45216 -2.273988,0.678316 -3.250232,0.678316 -0.761987,0 -1.762105,-0.261853 -3.000202,-0.785407 l -1.393011,-0.571149 -1.321465,-0.535453 c -1.928766,-0.809128 -4.00032,-1.213693 -6.214737,-1.213693 -5.92901,0 -10.691242,1.999024 -14.28677,5.99707 C 6.7707263,26.486829 4.973,31.758063 4.973,38.302408 c 0,9.20971 2.8811368,17.717457 8.643486,25.523091 C 17.616806,69.275141 21.271829,72 24.581556,72 c 1.404909,0 2.797844,-0.273676 4.17888,-0.821027 l 1.75013,-0.713937 1.393011,-0.499756 c 1.952488,-0.690139 3.750215,-1.035208 5.393179,-1.035208 1.738231,0 3.738391,0.440336 6.00048,1.320783 l 1.107208,0.428362 C 46.714053,71.559739 48.535728,72 49.869093,72 Z" />
</svg>
