<svg width="72" height="72" viewBox="0 0 72 72" xmlns="http://www.w3.org/2000/svg">
  <g transform="matrix(0.24161074,0,0,0.24160893,-8.3274261,-104.008)" >
    <g transform="matrix(1.1165523,0,0,-1.1165523,-103.48743,863.08638)" >
      <g clip-path="url(#clipPath4674)">
        <g transform="translate(375.7163,120.5527)">
          <path d="m 0,0 c 8.134,0 14.73,6.596 14.73,14.73 v 237.434 c 0,8.137 -6.596,14.731 -14.73,14.731 h -237.433 c -8.137,0 -14.73,-6.594 -14.73,-14.731 V 14.73 c 0,-8.134 6.593,-14.73 14.73,-14.73 z" style="fill:#3b5998;fill-opacity:1;fill-rule:nonzero;stroke:none" />
        </g>
        <g transform="translate(307.7046,120.5527)">
          <path d="m 0,0 v 103.355 h 34.693 l 5.194,40.28 H 0 v 25.717 c 0,11.662 3.238,19.609 19.962,19.609 l 21.33,0.01 v 36.026 c -3.69,0.49 -16.351,1.587 -31.081,1.587 -30.753,0 -51.806,-18.771 -51.806,-53.244 v -29.705 h -34.781 v -40.28 h 34.781 L -41.595,0 Z" style="fill:#ffffff;fill-opacity:1;fill-rule:nonzero;stroke:none" />
        </g>
      </g>
    </g>
  </g>
</svg>
