<svg width="72" height="72" viewBox="0 0 72 72" fill="none" xmlns="http://www.w3.org/2000/svg">
  <path fill-rule="evenodd" clip-rule="evenodd" d="M 35.967281,0 C 16.095358,0 0,16.495868 0,36.862276 0,53.173833 10.295634,66.951108 24.592628,71.83536 c 1.798365,0.322545 2.472751,-0.783324 2.472751,-1.750958 0,-0.87548 -0.04496,-3.778384 -0.04496,-6.865599 -9.036778,1.70488 -11.374652,-2.257815 -12.093997,-4.331318 -0.404632,-1.05979 -2.158037,-4.331317 -3.686647,-5.206796 -1.2588545,-0.691168 -3.0572186,-2.396048 -0.04496,-2.442126 2.832422,-0.04608 4.855582,2.672515 5.529968,3.778383 3.237056,5.57542 8.407352,4.008773 10.475471,3.041138 0.314714,-2.396048 1.258855,-4.008772 2.292914,-4.930329 -8.002719,-0.921557 -16.365113,-4.100928 -16.365113,-18.200749 0,-4.008772 1.393733,-7.326377 3.686647,-9.906736 -0.359673,-0.921557 -1.618528,-4.699941 0.359672,-9.768503 0,0 3.012261,-0.967635 9.891003,3.778383 2.877382,-0.829401 5.934601,-1.244102 8.99182,-1.244102 3.057219,0 6.114438,0.414701 8.991821,1.244102 6.878742,-4.792096 9.891001,-3.778383 9.891001,-3.778383 1.978201,5.068562 0.719347,8.846946 0.359673,9.768503 2.292914,2.580359 3.686647,5.851886 3.686647,9.906736 0,14.145898 -8.407352,17.279192 -16.410072,18.200749 1.303814,1.151946 2.427791,3.363682 2.427791,6.819521 0,4.930329 -0.04496,8.893024 -0.04496,10.137126 0,0.967634 0.674387,2.11958 2.47275,1.750958 C 61.638928,66.951108 71.934562,53.127755 71.934562,36.862276 71.934562,16.495868 55.839203,0 35.967281,0 Z" fill="#1b1f23" />
</svg>
