<svg width="72" height="72" viewBox="0 0 72 72" xmlns="http://www.w3.org/2000/svg">
  <path d="m 69.6,36.795455 c 0,-2.481819 -0.222727,-4.868182 -0.636364,-7.159091 H 36 v 13.554545 h 18.836364 c -0.827273,4.359091 -3.309091,8.05 -7.031819,10.531818 v 8.813637 H 59.163636 C 65.781818,56.427273 69.6,47.454545 69.6,36.795455 Z" fill="#4285f4" />
  <path d="m 36,71 c 9.45,0 17.372727,-3.118182 23.163636,-8.463636 L 47.804545,53.722727 c -3.118181,2.1 -7.095454,3.372728 -11.804545,3.372728 -9.1,0 -16.831818,-6.14091 -19.6,-14.413637 H 4.7545455 v 9.036364 C 10.513636,63.140909 22.318182,71 36,71 Z" fill="#34a853" />
  <path d="M 16.4,42.65 C 15.7,40.55 15.286364,38.322727 15.286364,36 15.286364,33.677273 15.7,31.45 16.4,29.35 V 20.313636 H 4.7545455 C 2.3681818,25.022727 1,30.336364 1,36 1,41.663636 2.3681818,46.977273 4.7545455,51.686364 l 9.0681815,-7.063637 z" fill="#fbbc05" />
  <path d="m 36,14.936364 c 5.154545,0 9.736364,1.781818 13.395455,5.218181 L 59.418182,10.131818 C 53.340909,4.4681818 45.45,1 36,1 22.318182,1 10.513636,8.8590909 4.7545455,20.313636 L 16.4,29.35 C 19.168182,21.077273 26.9,14.936364 36,14.936364 Z" fill="#ea4335" />
  <path d="M 1,1 H 71 V 71 H 1 Z" fill="none" />
</svg>
