<svg width="72" height="72" viewBox="0 0 72 72" xml:space="preserve" xmlns="http://www.w3.org/2000/svg">
  <path fill="#1d9bf0" d="m 64.628885,21.314668 c 0.04388,0.63474 0.04388,1.269479 0.04388,1.910068 0,19.518961 -14.859233,42.030264 -42.029982,42.030264 V 65.2433 C 14.616453,65.255 6.7568556,62.955898 0,58.620952 1.1670932,58.761355 2.3400366,58.831557 3.5159049,58.834482 10.167459,58.840332 16.628885,56.608507 21.861792,52.49879 15.540768,52.378862 9.9978062,48.257445 8.061426,42.240586 c 2.21426,0.427059 4.495795,0.339307 6.669104,-0.254481 C 7.8391225,40.593774 2.88117,34.53889 2.88117,27.507032 v -0.187204 c 2.0533821,1.143701 4.352468,1.77844 6.7042048,1.848641 C 3.0946984,24.830597 1.0939671,16.195804 5.0135283,9.444753 12.513346,18.673335 23.578793,24.283609 35.457404,24.877398 34.26691,19.746834 35.893236,14.370563 39.730896,10.763957 45.680439,5.1712323 55.03766,5.4578888 60.630347,11.404547 63.938574,10.752257 67.109324,9.538355 70.010969,7.8184166 68.908227,11.237818 66.600366,14.142408 63.517367,15.988124 66.445338,15.642967 69.306033,14.859049 72,13.662697 c -1.983181,2.971867 -4.48117,5.560549 -7.371115,7.651971 z" />
</svg>
